<svg width="71" height="70" fill="none" xmlns="http://www.w3.org/2000/svg"><g clip-path="url(#clip0)" fill="#828282"><path d="M66.398 39.956V6.29a2.05 2.05 0 00-2.05-2.05H53.957V2.05a2.05 2.05 0 10-4.102 0v2.187h-8.203V2.051a2.05 2.05 0 10-4.101 0v2.187h-8.203V2.051a2.05 2.05 0 10-4.102 0v2.187h-8.203V2.051a2.05 2.05 0 10-4.102 0v2.187H2.551A2.05 2.05 0 00.5 6.29v53.457a2.05 2.05 0 002.05 2.05h34.154C40.019 66.74 45.657 70 52.043 70 62.22 70 70.5 61.72 70.5 51.543a18.37 18.37 0 00-4.102-11.587zM12.941 8.34v2.05a2.05 2.05 0 104.102 0V8.34h8.203v2.05a2.05 2.05 0 104.102 0V8.34h8.203v2.05a2.05 2.05 0 104.101 0V8.34h8.203v2.05a2.05 2.05 0 104.102 0V8.34h8.34v8.203H4.602V8.34h8.34zm-8.34 49.355v-37.05h57.696v15.559a18.353 18.353 0 00-10.254-3.118c-6.48 0-12.19 3.358-15.484 8.424-.278-.14-.59-.22-.922-.22h-4.102a2.05 2.05 0 100 4.1h3.107a18.297 18.297 0 00-.941 4.102h-2.166a2.05 2.05 0 100 4.102h2.166a18.27 18.27 0 00.94 4.101H4.602zm47.442 8.203c-7.916 0-14.355-6.44-14.355-14.355 0-7.916 6.44-14.355 14.355-14.355 7.916 0 14.355 6.44 14.355 14.355 0 7.916-6.44 14.355-14.355 14.355z"/><path d="M60.246 49.492h-6.152V43.34a2.05 2.05 0 10-4.102 0v8.203a2.05 2.05 0 002.051 2.05h8.203a2.05 2.05 0 100-4.1zM19.094 24.883h-4.102a2.05 2.05 0 100 4.101h4.102a2.05 2.05 0 100-4.101zm0 8.203h-4.102a2.05 2.05 0 100 4.102h4.102a2.05 2.05 0 100-4.102zm0 8.204h-4.102a2.05 2.05 0 100 4.1h4.102a2.05 2.05 0 100-4.1zm12.441-12.306h4.102a2.05 2.05 0 100-4.101h-4.102a2.05 2.05 0 100 4.101zm0 8.204h4.102a2.05 2.05 0 100-4.102h-4.102a2.05 2.05 0 100 4.102zM19.094 49.492h-4.102a2.05 2.05 0 100 4.102h4.102a2.05 2.05 0 100-4.102zm28.847-20.508h4.102a2.05 2.05 0 100-4.101h-4.102a2.05 2.05 0 100 4.101z"/></g><defs><clipPath id="clip0"><path fill="#fff" d="M.5 0h70v70H.5z"/></clipPath></defs></svg>