<svg width="100" height="100" fill="none" xmlns="http://www.w3.org/2000/svg"><path d="M39.455 70.078c-.378 0-.758-.13-1.069-.394l-10.683-9.097a1.651 1.651 0 010-2.514l10.683-9.097a1.651 1.651 0 112.14 2.514l-9.206 7.84 9.206 7.84a1.651 1.651 0 01-1.071 2.908zm21.09 0a1.65 1.65 0 01-1.071-2.909l9.206-7.84-9.207-7.84a1.65 1.65 0 012.14-2.513l10.684 9.097a1.65 1.65 0 010 2.514l-10.683 9.097a1.648 1.648 0 01-1.07.394zm-14.327 6.824A1.652 1.652 0 0144.6 74.91l6.658-31.612a1.65 1.65 0 113.231.681l-6.658 31.612a1.651 1.651 0 01-1.613 1.311z" fill="#4F4F4F"/><path d="M88.915 94.124h-77.83C4.973 94.124 0 89.152 0 83.04V16.981C0 10.87 4.973 5.896 11.085 5.896h77.83C95.027 5.896 100 10.87 100 16.981V83.04c0 6.113-4.973 11.085-11.085 11.085zM11.085 9.198c-4.291 0-7.783 3.492-7.783 7.783V83.04c0 4.292 3.492 7.783 7.783 7.783h77.83c4.291 0 7.783-3.491 7.783-7.783V16.981c0-4.291-3.492-7.783-7.783-7.783h-77.83z" fill="#333"/><path d="M98.35 32.332H1.65a1.65 1.65 0 110-3.302h96.7a1.651 1.651 0 010 3.302zm-70.142-7.899a5.232 5.232 0 01-5.225-5.225 5.231 5.231 0 015.225-5.225 5.23 5.23 0 015.225 5.225 5.231 5.231 0 01-5.225 5.225zm0-7.148c-1.06 0-1.923.863-1.923 1.923s.863 1.923 1.923 1.923 1.923-.863 1.923-1.923-.863-1.923-1.923-1.923zm-16.053 7.097a5.23 5.23 0 01-5.224-5.225 5.23 5.23 0 015.224-5.224 5.23 5.23 0 015.225 5.224 5.23 5.23 0 01-5.225 5.225zm0-7.148c-1.06 0-1.922.864-1.922 1.923 0 1.06.863 1.923 1.922 1.923 1.06 0 1.923-.862 1.923-1.923 0-1.06-.862-1.922-1.923-1.922zm32.105 7.249a5.23 5.23 0 01-5.223-5.225 5.23 5.23 0 015.223-5.224 5.23 5.23 0 015.225 5.224 5.23 5.23 0 01-5.225 5.225zm0-7.148a1.924 1.924 0 000 3.846c1.06 0 1.923-.863 1.923-1.923s-.862-1.923-1.923-1.923z" fill="#4F4F4F"/></svg>