<svg width="100" height="100" fill="none" xmlns="http://www.w3.org/2000/svg"><g clip-path="url(#clip0)"><path d="M91.667 4.167H8.333C3.737 4.167 0 7.904 0 12.5v58.334c0 4.596 3.737 8.333 8.333 8.333h29.173c-.09 3.33-.728 8.654-3.104 11.153-.873.92-1.876 1.347-3.152 1.347a2.082 2.082 0 00-2.083 2.084c0 1.151.932 2.083 2.083 2.083h37.5a2.082 2.082 0 002.084-2.083 2.082 2.082 0 00-2.084-2.084c-1.275 0-2.278-.427-3.151-1.347-2.376-2.5-3.015-7.822-3.104-11.153h29.172c4.596 0 8.333-3.737 8.333-8.333V12.5c0-4.596-3.737-8.333-8.333-8.333zm-53.048 87.5c2.516-3.857 3.003-9.412 3.065-12.5h16.631c.063 3.088.55 8.643 3.066 12.5H38.619zm57.214-20.833A4.172 4.172 0 0191.667 75H8.333a4.172 4.172 0 01-4.166-4.166V62.5h91.666v8.334zm0-12.5H4.167V12.5a4.172 4.172 0 014.166-4.166h83.334a4.172 4.172 0 014.166 4.166v45.834z" fill="#333"/><path d="M50 72.917a4.167 4.167 0 100-8.333 4.167 4.167 0 000 8.333z" fill="#4F4F4F"/></g><defs><clipPath id="clip0"><path fill="#fff" d="M0 0h100v100H0z"/></clipPath></defs></svg>