<svg width="1486" height="850" fill="none" xmlns="http://www.w3.org/2000/svg"><rect width="850" height="850" rx="425" fill="#F2C94C"/><path d="M521.876 451.404h-35.89v204.839l134.977-80.401V192.674H235.174v203.661l104.803-74.856 76.071 54.291v-21.819h35.966v47.473l69.862 49.98z" fill="#333"/><path d="M400.781 483.876h-65.609v18.989h65.609v-18.989zm0 25.902h-65.609v48.328h65.609v-48.328z" fill="#333"/><path d="M1083.87 204h-64.8v280h44V378.8h20.8c44 0 65.6-24.4 65.6-69.2v-36.4c0-44.8-21.6-69.2-65.6-69.2zm0 40c14 0 21.6 6.4 21.6 26.4v42c0 20-7.6 26.4-21.6 26.4h-20.8V244h20.8zm152.38-40h-66.4v280h69.2c44 0 66.8-23.2 66.8-66.4v-22.8c0-29.6-9.2-50.8-32.8-60 19.6-9.2 28.4-27.6 28.4-56.4v-10c0-43.2-19.6-64.4-65.2-64.4zm-2.8 154c20 0 28.4 8 28.4 34v24.4c0 20.8-8 27.6-22.8 27.6h-25.2v-86h19.6zm1.6-114c15.6 0 22.4 8.8 22.4 28.8v15.6c0 22.4-10 29.6-26.4 29.6h-17.2v-74h21.2zm84.5 0h46v240h44V244h46v-40h-136v40zm-140.87 354.613c-1.3 11.129-5.42 19.729-12.36 25.799-6.89 6.022-16.06 9.033-27.53 9.033-12.43 0-22.4-4.456-29.92-13.369-7.47-8.913-11.2-20.836-11.2-35.771v-10.117c0-9.78 1.73-18.38 5.2-25.799 3.52-7.42 8.48-13.104 14.89-17.055 6.41-3.999 13.83-5.998 22.26-5.998 11.17 0 20.14 3.131 26.88 9.394 6.75 6.215 10.67 14.839 11.78 25.872h-13.95c-1.2-8.383-3.83-14.454-7.87-18.211-4-3.758-9.62-5.637-16.84-5.637-8.87 0-15.83 3.276-20.89 9.828-5.01 6.552-7.51 15.874-7.51 27.967v10.189c0 11.418 2.38 20.5 7.15 27.244 4.77 6.745 11.44 10.118 20.02 10.118 7.71 0 13.61-1.735 17.7-5.204 4.15-3.516 6.89-9.611 8.24-18.283h13.95zM1278.04 632h-13.94v-93.801h-51.89V632h-13.87V526.781h79.7V632zm57.53-73.711c9.83 0 17.68 3.3 23.56 9.9 5.92 6.553 8.89 15.2 8.89 25.944v1.228c0 7.371-1.43 13.972-4.27 19.801-2.84 5.781-6.94 10.286-12.28 13.514-5.3 3.179-11.42 4.769-18.36 4.769-10.5 0-18.96-3.493-25.36-10.478-6.41-7.034-9.62-16.453-9.62-28.256v-6.504c0-16.428 3.04-29.484 9.11-39.168 6.12-9.684 15.13-15.585 27.03-17.705 6.74-1.204 11.3-2.674 13.66-4.408 2.36-1.735 3.54-4.119 3.54-7.155h10.98c0 6.023-1.37 10.72-4.12 14.092-2.7 3.373-7.03 5.757-13.01 7.155l-9.97 2.24c-7.95 1.879-13.92 5.058-17.92 9.539-3.95 4.432-6.53 10.358-7.73 17.777 7.08-8.19 15.7-12.285 25.87-12.285zm-2.6 10.984c-6.56 0-11.76 2.217-15.61 6.649-3.86 4.384-5.78 10.478-5.78 18.283v1.156c0 8.383 1.92 15.032 5.78 19.946 3.9 4.866 9.15 7.298 15.75 7.298 6.65 0 11.9-2.457 15.76-7.371 3.85-4.914 5.78-12.092 5.78-21.535 0-7.371-1.95-13.273-5.86-17.705-3.85-4.48-9.13-6.721-15.82-6.721z" fill="#fff"/></svg>