<svg width="44" height="44" fill="none" xmlns="http://www.w3.org/2000/svg"><path d="M22 0C13.457 0 6.508 7.059 6.508 15.735v12.53C6.508 36.941 13.458 44 22 44c8.542 0 15.492-7.037 15.492-15.686V15.735C37.492 7.06 30.542 0 22 0zm12.578 28.314c0 7.042-5.642 12.772-12.578 12.772-6.935 0-12.578-5.751-12.578-12.821v-12.53c0-7.07 5.643-12.821 12.578-12.821 6.936 0 12.578 5.751 12.578 12.821v12.579z" fill="#F2C94C"/><path d="M22 12.044c-.805 0-1.457.652-1.457 1.457v5.1a1.457 1.457 0 102.914 0v-5.1c0-.805-.652-1.457-1.457-1.457z" fill="#F2C94C"/></svg>