<svg width="100" height="100" fill="none" xmlns="http://www.w3.org/2000/svg"><path d="M50 66.736a1.265 1.265 0 100 2.531 1.265 1.265 0 000-2.53zm42.676-56.97H65.124C64.59 4.292 59.964 0 54.352 0h-8.704C39.68 0 34.823 4.856 34.823 10.825v5.777H8.301c-.81 0-1.465.655-1.465 1.464v55.665c0 .809.656 1.464 1.465 1.464h83.398c.81 0 1.465-.655 1.465-1.464V18.066c0-.809-.656-1.464-1.465-1.464H70.155a1.465 1.465 0 100 2.93h20.08v52.734h-6.463v-7.721c0-5.174-3.057-9.872-7.804-11.976L61.86 46.523a5.828 5.828 0 01-3.536-5.363v-.02c4.124-2.716 6.853-7.385 6.853-12.681V12.695h27.499a4.4 4.4 0 014.394 4.395v57.617a4.4 4.4 0 01-4.394 4.395H7.324a4.4 4.4 0 01-4.394-4.395V17.09a4.4 4.4 0 014.394-4.395h22.614a1.465 1.465 0 100-2.93H7.324C3.286 9.766 0 13.052 0 17.09v57.617c0 4.039 3.286 7.324 7.324 7.324h32.234l-4.441 9.18h-.576a4.4 4.4 0 00-4.394 4.395A4.4 4.4 0 0034.54 100h30.92a4.4 4.4 0 004.394-4.394 4.4 4.4 0 00-4.394-4.395h-.576l-4.441-9.18h32.234c4.038 0 7.324-3.285 7.324-7.324V17.09c0-4.039-3.285-7.324-7.324-7.324zm-76.448 62.5H9.766V19.53h25.057c.225 2.165 0 6.87 0 8.928 0 5.296 2.73 9.965 6.853 12.68v.091a5.83 5.83 0 01-3.506 5.349l-13.928 6.055A13.068 13.068 0 0016.228 64.7v7.565zm45.295-22.7l13.274 5.69a10.168 10.168 0 016.045 9.289v7.72H19.158v-7.564a10.15 10.15 0 016.237-9.373l13.203-5.74 9.597 6.5a3.99 3.99 0 002.24.687c.836 0 1.67-.26 2.373-.779l8.715-6.43zm-2.829-1.554L51.07 53.64a1.067 1.067 0 01-1.23.024l-8.4-5.69a8.76 8.76 0 003.058-5.374A15.092 15.092 0 0050 43.636a15.09 15.09 0 005.514-1.042 8.751 8.751 0 003.18 5.418zm3.553-22.295a10.096 10.096 0 01-2.854 3.844 9.86 9.86 0 01-2.01 1.285 3.997 3.997 0 00-3.486-2.05h-3.07a4 4 0 00-3.996 3.996 4 4 0 003.996 3.996h3.07a4 4 0 003.842-2.907 12.834 12.834 0 004.19-2.657C60.67 36.65 55.801 40.706 50 40.706c-6.753 0-12.247-5.494-12.247-12.247v-7c0-1.058.503-2.005 1.38-2.596a3.087 3.087 0 012.925-.307l6.559 2.653c4.444 1.797 9.647 1.199 13.63-1.481v5.989zm-7.284 7.079a1.067 1.067 0 01-1.066 1.062h-3.07a1.067 1.067 0 01-1.066-1.066c0-.588.478-1.066 1.066-1.066h3.07c.587 0 1.064.476 1.066 1.062v.008zm7.284-16.463L59.81 17.76a11.547 11.547 0 01-10.095.734l-6.558-2.653a6.05 6.05 0 00-5.404.432v-5.447c0-4.354 3.542-7.895 7.895-7.895h8.704c4.353 0 7.895 3.541 7.895 7.895v5.508zm3.212 77.808c.807 0 1.464.657 1.464 1.465 0 .807-.657 1.464-1.464 1.464H34.54a1.466 1.466 0 01-1.464-1.464c0-.808.657-1.465 1.464-1.465h30.92zm-3.83-2.93H38.37l4.442-9.18h14.374l4.442 9.18zM50 60.877a1.265 1.265 0 100 2.531 1.265 1.265 0 000-2.531z" fill="#333"/></svg>