<svg width="70" height="70" fill="none" xmlns="http://www.w3.org/2000/svg"><g clip-path="url(#clip0)" fill="#F2C94C"><path d="M61.11 27.606L37.914 4.41a6.158 6.158 0 00-8.698 0c-2.156 2.156-2.341 5.443-.75 7.79l-.032.162a42.916 42.916 0 01-11.774 22L6.02 45.003a6.147 6.147 0 000 8.698l5.8 5.8a6.147 6.147 0 008.698 0l1.45-1.45 10.148 10.147a6.147 6.147 0 008.698 0 6.157 6.157 0 000-8.698l-4.35-4.349 1.45-1.45a6.147 6.147 0 000-8.698l-.985-.985a42.921 42.921 0 0116.229-6.931l.163-.033a6.158 6.158 0 007.79-.75 6.158 6.158 0 000-8.697zM17.618 56.6a2.05 2.05 0 01-2.9 0L8.92 50.8a2.049 2.049 0 010-2.899l10.148-10.148 8.698 8.699L17.62 56.6zm20.296 5.798c.8.8.8 2.1 0 2.9-.799.8-2.1.8-2.9 0L24.868 55.15l2.9-2.9 10.147 10.148zm-7.248-13.047c.616-.616 1.539-1.56 2.995-2.804l1.354 1.354a2.049 2.049 0 010 2.9l-1.45 1.45-2.9-2.9zm.087-5.712l-8.873-8.872a46.95 46.95 0 009.982-19.013l17.904 17.904a46.947 46.947 0 00-19.013 9.981zM58.21 33.404a2.05 2.05 0 01-2.9 0L32.116 10.21a2.05 2.05 0 112.9-2.9L58.21 30.505c.8.8.8 2.1 0 2.9z"/><path d="M20.518 45.001c-.8-.8-2.099-.8-2.9 0l-2.899 2.9a2.05 2.05 0 002.9 2.9l2.899-2.9c.8-.8.8-2.099 0-2.9zM47.33 0a2.05 2.05 0 00-2.05 2.05v4.1a2.05 2.05 0 104.1 0v-4.1A2.05 2.05 0 0047.33 0zm16.402 16.402h-4.1a2.05 2.05 0 000 4.1h4.1a2.05 2.05 0 100-4.1zM61.082 4.7c-.8-.8-2.099-.8-2.9 0l-4.1 4.101a2.05 2.05 0 002.9 2.9l4.1-4.101c.8-.8.8-2.099 0-2.9z"/></g><defs><clipPath id="clip0"><path fill="#fff" d="M0 0h70v70H0z"/></clipPath></defs></svg>