<svg width="100" height="100" fill="none" xmlns="http://www.w3.org/2000/svg"><path d="M95 20H73.333v-6.667A8.343 8.343 0 0065 5H35a8.343 8.343 0 00-8.333 8.333V20H5a5 5 0 00-5 5v37.1a5.022 5.022 0 003.333 4.705V90a5 5 0 005 5h83.334a5 5 0 005-5V66.807A5.024 5.024 0 00100 62.1V25a5 5 0 00-5-5zm-65-6.667a5 5 0 015-5h30a5 5 0 015 5V20h-3.333v-6.667c0-.92-.747-1.666-1.667-1.666H35c-.92 0-1.667.746-1.667 1.666V20H30v-6.667zM63.333 20H36.667v-5h26.666v5zm30 70c0 .92-.746 1.667-1.666 1.667H8.333c-.92 0-1.666-.747-1.666-1.667V67.378l36.666 5.057v4.232a5 5 0 005 5h3.334a5 5 0 005-5v-4.232l36.666-5.057V90zm-40-13.333c0 .92-.746 1.666-1.666 1.666h-3.334c-.92 0-1.666-.746-1.666-1.666v-10c0-.92.746-1.667 1.666-1.667h3.334c.92 0 1.666.746 1.666 1.667v10zM96.667 62.1c0 .83-.61 1.535-1.433 1.652l-.463.063-38.104 5.255v-2.403a5 5 0 00-5-5h-3.334a5 5 0 00-5 5v2.403L4.768 63.752A1.667 1.667 0 013.333 62.1V25c0-.92.747-1.667 1.667-1.667h90c.92 0 1.667.747 1.667 1.667v37.1z" fill="#333"/></svg>