<svg width="100" height="100" fill="none" xmlns="http://www.w3.org/2000/svg"><path d="M12.5 73.438H9.375v9.374H12.5v-9.374zm6.25 0h-3.125v3.124h3.125v-3.124zm0 6.25h-3.125v3.124h3.125v-3.124zm19.621-44.13C41.502 36.81 45.632 37.5 50 37.5c4.368 0 8.498-.69 11.629-1.942 3.584-1.434 5.559-3.519 5.559-5.87 0-2.352-1.975-4.437-5.56-5.87-3.13-1.253-7.26-1.943-11.628-1.943s-8.498.69-11.629 1.942c-3.585 1.434-5.559 3.519-5.559 5.87 0 2.352 1.974 4.437 5.56 5.87zM50 25c8.584 0 14.063 2.776 14.063 4.688 0 1.91-5.479 4.687-14.063 4.687s-14.063-2.776-14.063-4.688C35.938 27.777 41.416 25 50 25z" fill="#4F4F4F"/><path d="M84.375 45.313h-1.563V29.687c0-5.186-3.538-9.989-9.962-13.522-6.13-3.371-14.244-5.227-22.85-5.227-8.606 0-16.72 1.855-22.85 5.227-6.424 3.533-9.962 8.336-9.962 13.523v21.875c0 5.186 3.538 9.989 9.962 13.522 1.478.807 3.01 1.51 4.585 2.103H4.688a1.563 1.563 0 00-1.563 1.562V87.5a1.563 1.563 0 001.563 1.563h79.687a12.514 12.514 0 0012.5-12.5v-18.75a12.514 12.514 0 00-12.5-12.5zm-62.5 40.624H6.25V70.314h15.625v15.624zm57.813-40.624H68.264a36.128 36.128 0 004.585-2.103c2.88-1.583 5.176-3.422 6.838-5.436v7.538zm-51.032-26.41c5.675-3.122 13.256-4.84 21.344-4.84 8.088 0 15.669 1.718 21.344 4.84 5.38 2.96 8.344 6.79 8.344 10.785s-2.964 7.825-8.344 10.784c-5.675 3.122-13.256 4.84-21.344 4.84-8.088 0-15.669-1.718-21.344-4.84-5.38-2.96-8.343-6.79-8.343-10.785s2.963-7.825 8.343-10.784zm0 43.444c-5.38-2.96-8.343-6.79-8.343-10.785V37.773c1.66 2.014 3.958 3.853 6.837 5.436.812.447 1.658.866 2.538 1.259v7.094h3.125v-5.857a45.41 45.41 0 004.687 1.348v4.51h3.125v-3.887c1.528.255 3.094.447 4.688.575v9.562h3.124v-9.396c.52.013 1.04.02 1.563.02h3.125v3.126h3.125v-3.126h4.688v3.126h3.124v-3.126h4.688v9.376h3.125v-9.376h4.688v3.126h3.124v-3.126h4.688v3.126H87.5v-2.588a9.375 9.375 0 01-3.125 18.212H50c-8.088 0-15.669-1.718-21.344-4.84zM93.75 76.562a9.386 9.386 0 01-9.375 9.376H25V70.311h4.688v3.126h3.125v-3.126H37.5v3.126h3.125v-3.126h4.688v9.376h3.124v-9.376h4.688v3.126h3.125v-3.126h4.688v3.126h3.124v-3.126h4.688v9.376h3.125v-9.376h4.688v3.126h3.124v-3.126h4.688v3.126H87.5v-3.521a12.515 12.515 0 006.25-3.85v10.496z" fill="#333"/></svg>