<svg width="70" height="70" fill="none" xmlns="http://www.w3.org/2000/svg"><path d="M26.833 23.334H24.5v2.333h2.333v-2.334zm0 4.666H24.5v2.333h2.333V28zm0 4.666H24.5V35h2.333v-2.334zm0 4.668H24.5v2.333h2.333v-2.334zm4.667-14h-2.334v2.333H31.5v-2.334zm0 4.666h-2.334v2.333H31.5V28zm0 4.666h-2.334V35H31.5v-2.334zm0 4.668h-2.334v2.333H31.5v-2.334zm4.667-14h-2.334v2.333h2.334v-2.334zm0 4.666h-2.334v2.333h2.334V28zm0 4.666h-2.334V35h2.334v-2.334zm0 4.668h-2.334v2.333h2.334v-2.334zm4.666-14H38.5v2.333h2.333v-2.334zM31.5 18.666h-2.334V21H31.5v-2.334zm4.667 0h-2.334V21h2.334v-2.334zm4.666 0H38.5V21h2.333v-2.334zm0 9.334H38.5v2.333h2.333V28zm0 4.666H38.5V35h2.333v-2.334zm0 4.668H38.5v2.333h2.333v-2.334zm4.667-14h-2.334v2.333H45.5v-2.334zm0 4.666h-2.334v2.333H45.5V28zm0 4.666h-2.334V35H45.5v-2.334zm0 4.668h-2.334v2.333H45.5v-2.334z" fill="#828282"/><path d="M68.835 17.5H51.333V1.167A1.166 1.166 0 0050.167 0H19.833c-.644 0-1.166.521-1.166 1.165V17.5h-17.5C.523 17.5 0 18.021 0 18.665v42.002c0 .644.521 1.166 1.165 1.166h2.44A7.002 7.002 0 003.5 63v5.833c0 .644.521 1.167 1.165 1.167h60.668c.644 0 1.167-.521 1.167-1.165V63a6.969 6.969 0 00-.105-1.167h2.438c.644 0 1.167-.521 1.167-1.165V18.667c0-.644-.521-1.167-1.165-1.167zM50.167 50.167a2.333 2.333 0 11-4.667 0 2.333 2.333 0 014.667 0zm-28-2.334a2.333 2.333 0 110 4.667 2.333 2.333 0 010-4.667zm-7 19.834H5.833V63a4.667 4.667 0 019.334 0v4.667zm-7-14a2.333 2.333 0 114.666 0 2.333 2.333 0 01-4.666 0zm7.176 4.29a7.032 7.032 0 00-1.467-1.086 4.667 4.667 0 10-6.752 0A7.045 7.045 0 004.447 59.5H2.333V19.833h16.334v27.28a4.603 4.603 0 00.124 6.258 7.02 7.02 0 00-3.448 4.587zm11.49 9.71H17.5V59.5a4.667 4.667 0 019.333 0v8.167zm14 0H29.167V59.5a5.833 5.833 0 0111.666 0v8.167zM31.5 47.833a3.5 3.5 0 117 0 3.5 3.5 0 01-7 0zm10.605 7.656a8.217 8.217 0 00-3.347-3.232 5.834 5.834 0 10-7.516 0 8.217 8.217 0 00-3.347 3.232 7.047 7.047 0 00-2.353-2.117A4.633 4.633 0 0021 45.665V2.333h28v43.333a4.61 4.61 0 00-1.167-.166 4.654 4.654 0 00-3.375 7.871 7.047 7.047 0 00-2.353 2.118zM52.5 63v4.667h-9.333V59.5a4.667 4.667 0 119.333 0V63zm11.667 4.667h-9.334V63a4.667 4.667 0 019.334 0v4.667zm-7-14a2.333 2.333 0 114.666 0 2.333 2.333 0 01-4.666 0zm10.5 5.833h-2.114a7.045 7.045 0 00-2.677-2.629 4.667 4.667 0 10-6.752 0 7.025 7.025 0 00-1.467 1.087 7.02 7.02 0 00-3.448-4.587 4.603 4.603 0 00.124-6.259V19.833h16.334V59.5z" fill="#828282"/><path d="M57.167 26.834h-2.334V45.5h2.334V26.834zm7 0h-2.334V45.5h2.334V26.834zm-56 0H5.834V45.5h2.333V26.834zm7 0h-2.333V45.5h2.333V26.834zM42.002 4.667H28c-.644 0-1.166.52-1.166 1.165v9.335c0 .643.52 1.166 1.165 1.166H42c.644 0 1.166-.521 1.167-1.165V5.833c0-.644-.522-1.166-1.166-1.167zM40.833 14H29.168V7h11.666v7z" fill="#828282"/></svg>