<svg width="71" height="70" viewBox="0 0 71 70" fill="none" xmlns="http://www.w3.org/2000/svg">
<g clip-path="url(#clip0)">
<path d="M66.3984 39.9561V6.28906C66.3984 5.15633 65.4804 4.23828 64.3477 4.23828H53.957V2.05078C53.957 0.918045 53.039 0 51.9062 0C50.7735 0 49.8555 0.918045 49.8555 2.05078V4.23828H41.6523V2.05078C41.6523 0.918045 40.7343 0 39.6016 0C38.4688 0 37.5508 0.918045 37.5508 2.05078V4.23828H29.3477V2.05078C29.3477 0.918045 28.4296 0 27.2969 0C26.1641 0 25.2461 0.918045 25.2461 2.05078V4.23828H17.043V2.05078C17.043 0.918045 16.1249 0 14.9922 0C13.8595 0 12.9414 0.918045 12.9414 2.05078V4.23828H2.55078C1.41805 4.23828 0.5 5.15633 0.5 6.28906V59.7461C0.5 60.8788 1.41805 61.7969 2.55078 61.7969H36.7038C40.0192 66.7396 45.6572 70 52.043 70C62.22 70 70.5 61.72 70.5 51.543C70.5 47.1584 68.9619 43.1262 66.3984 39.9561ZM12.9414 8.33984V10.3906C12.9414 11.5234 13.8595 12.4414 14.9922 12.4414C16.1249 12.4414 17.043 11.5234 17.043 10.3906V8.33984H25.2461V10.3906C25.2461 11.5234 26.1641 12.4414 27.2969 12.4414C28.4296 12.4414 29.3477 11.5234 29.3477 10.3906V8.33984H37.5508V10.3906C37.5508 11.5234 38.4688 12.4414 39.6016 12.4414C40.7343 12.4414 41.6523 11.5234 41.6523 10.3906V8.33984H49.8555V10.3906C49.8555 11.5234 50.7735 12.4414 51.9062 12.4414C53.039 12.4414 53.957 11.5234 53.957 10.3906V8.33984H62.2969V16.543H4.60156V8.33984H12.9414ZM4.60156 57.6953V20.6445H62.2969V36.2038C59.3622 34.2358 55.8342 33.0859 52.043 33.0859C45.5627 33.0859 39.8526 36.4436 36.5585 41.5096C36.2813 41.3697 35.9689 41.2891 35.6367 41.2891H31.5352C30.4024 41.2891 29.4844 42.2071 29.4844 43.3398C29.4844 44.4726 30.4024 45.3906 31.5352 45.3906H34.6418C34.1787 46.6969 33.8583 48.0705 33.7008 49.4922H31.5352C30.4024 49.4922 29.4844 50.4102 29.4844 51.543C29.4844 52.6757 30.4024 53.5938 31.5352 53.5938H33.7008C33.8583 55.0154 34.1782 56.389 34.6418 57.6953H4.60156ZM52.043 65.8984C44.1272 65.8984 37.6875 59.4588 37.6875 51.543C37.6875 43.6272 44.1272 37.1875 52.043 37.1875C59.9588 37.1875 66.3984 43.6272 66.3984 51.543C66.3984 59.4588 59.9588 65.8984 52.043 65.8984Z" fill="#828282"/>
<path d="M60.2461 49.4922H54.0938V43.3398C54.0938 42.2071 53.1757 41.2891 52.043 41.2891C50.9102 41.2891 49.9922 42.2071 49.9922 43.3398V51.543C49.9922 52.6757 50.9102 53.5938 52.043 53.5938H60.2461C61.3788 53.5938 62.2969 52.6757 62.2969 51.543C62.2969 50.4102 61.3788 49.4922 60.2461 49.4922Z" fill="#828282"/>
<path d="M19.0938 24.8828H14.9922C13.8595 24.8828 12.9414 25.8009 12.9414 26.9336C12.9414 28.0663 13.8595 28.9844 14.9922 28.9844H19.0938C20.2265 28.9844 21.1445 28.0663 21.1445 26.9336C21.1445 25.8009 20.2265 24.8828 19.0938 24.8828Z" fill="#828282"/>
<path d="M19.0938 33.0859H14.9922C13.8595 33.0859 12.9414 34.004 12.9414 35.1367C12.9414 36.2695 13.8595 37.1875 14.9922 37.1875H19.0938C20.2265 37.1875 21.1445 36.2695 21.1445 35.1367C21.1445 34.004 20.2265 33.0859 19.0938 33.0859Z" fill="#828282"/>
<path d="M19.0938 41.2891H14.9922C13.8595 41.2891 12.9414 42.2071 12.9414 43.3398C12.9414 44.4726 13.8595 45.3906 14.9922 45.3906H19.0938C20.2265 45.3906 21.1445 44.4726 21.1445 43.3398C21.1445 42.2071 20.2265 41.2891 19.0938 41.2891Z" fill="#828282"/>
<path d="M31.5352 28.9844H35.6367C36.7695 28.9844 37.6875 28.0663 37.6875 26.9336C37.6875 25.8009 36.7695 24.8828 35.6367 24.8828H31.5352C30.4024 24.8828 29.4844 25.8009 29.4844 26.9336C29.4844 28.0663 30.4024 28.9844 31.5352 28.9844Z" fill="#828282"/>
<path d="M31.5352 37.1875H35.6367C36.7695 37.1875 37.6875 36.2695 37.6875 35.1367C37.6875 34.004 36.7695 33.0859 35.6367 33.0859H31.5352C30.4024 33.0859 29.4844 34.004 29.4844 35.1367C29.4844 36.2695 30.4024 37.1875 31.5352 37.1875Z" fill="#828282"/>
<path d="M19.0938 49.4922H14.9922C13.8595 49.4922 12.9414 50.4102 12.9414 51.543C12.9414 52.6757 13.8595 53.5938 14.9922 53.5938H19.0938C20.2265 53.5938 21.1445 52.6757 21.1445 51.543C21.1445 50.4102 20.2265 49.4922 19.0938 49.4922Z" fill="#828282"/>
<path d="M47.9414 28.9844H52.043C53.1757 28.9844 54.0938 28.0663 54.0938 26.9336C54.0938 25.8009 53.1757 24.8828 52.043 24.8828H47.9414C46.8087 24.8828 45.8906 25.8009 45.8906 26.9336C45.8906 28.0663 46.8087 28.9844 47.9414 28.9844Z" fill="#828282"/>
</g>
<defs>
<clipPath id="clip0">
<rect x="0.5" width="70" height="70" fill="white"/>
</clipPath>
</defs>
</svg>
