<svg width="100" height="100" viewBox="0 0 100 100" fill="none" xmlns="http://www.w3.org/2000/svg">
<path d="M39.4549 70.0783C39.0772 70.0783 38.6967 69.9484 38.3862 69.684L27.703 60.5872C27.3345 60.273 27.1226 59.8142 27.1226 59.3296C27.1226 58.846 27.3354 58.3872 27.703 58.073L38.3862 48.9762C39.0799 48.3848 40.1219 48.4686 40.7134 49.1623C41.3039 49.857 41.221 50.899 40.5263 51.4895L31.3199 59.3296L40.5263 67.1698C41.221 67.7613 41.3039 68.8032 40.7134 69.497C40.3863 69.8811 39.922 70.0783 39.4549 70.0783Z" fill="#4F4F4F"/>
<path d="M60.5448 70.0783C60.0777 70.0783 59.6134 69.8811 59.2873 69.497C58.6958 68.8032 58.7796 67.7613 59.4734 67.1698L68.6798 59.3296L59.4734 51.4895C58.7796 50.899 58.6958 49.857 59.2873 49.1623C59.8778 48.4686 60.9207 48.3848 61.6135 48.9762L72.2967 58.073C72.6653 58.3872 72.8772 58.846 72.8772 59.3296C72.8772 59.8142 72.6653 60.273 72.2967 60.5872L61.6135 69.684C61.303 69.9484 60.9226 70.0783 60.5448 70.0783Z" fill="#4F4F4F"/>
<path d="M46.218 76.902C46.1047 76.902 45.9904 76.8901 45.8753 76.8661C44.9835 76.6782 44.4123 75.802 44.6002 74.9102L51.2584 43.2981C51.4463 42.4063 52.3215 41.8351 53.2142 42.0231C54.1061 42.211 54.6772 43.0862 54.4893 43.979L47.8312 75.591C47.6672 76.3686 46.9818 76.902 46.218 76.902Z" fill="#4F4F4F"/>
<path d="M88.9151 94.1243H11.0849C4.9731 94.1243 0 89.1521 0 83.0394V16.9814C0 10.8696 4.9731 5.89648 11.0849 5.89648H88.9151C95.0269 5.89648 100 10.8696 100 16.9814V83.0394C100 89.1521 95.0269 94.1243 88.9151 94.1243ZM11.0849 9.19837C6.79356 9.19837 3.30189 12.69 3.30189 16.9814V83.0394C3.30189 87.3307 6.79356 90.8224 11.0849 90.8224H88.9151C93.2064 90.8224 96.6981 87.3307 96.6981 83.0394V16.9814C96.6981 12.69 93.2064 9.19837 88.9151 9.19837H11.0849Z" fill="#333333"/>
<path d="M98.3491 32.3322H1.65094C0.738871 32.3322 0 31.5933 0 30.6812C0 29.7701 0.738871 29.0303 1.65094 29.0303H98.3491C99.2611 29.0303 100 29.7701 100 30.6812C100 31.5933 99.2611 32.3322 98.3491 32.3322Z" fill="#4F4F4F"/>
<path d="M28.208 24.4326C25.3281 24.4326 22.9834 22.0879 22.9834 19.208C22.9834 16.3271 25.3281 13.9834 28.208 13.9834C31.0889 13.9834 33.4326 16.3271 33.4326 19.208C33.4326 22.0879 31.0889 24.4326 28.208 24.4326ZM28.208 17.2853C27.1485 17.2853 26.2853 18.1476 26.2853 19.208C26.2853 20.2684 27.1485 21.1307 28.208 21.1307C29.2684 21.1307 30.1307 20.2684 30.1307 19.208C30.1307 18.1476 29.2684 17.2853 28.208 17.2853Z" fill="#4F4F4F"/>
<path d="M12.1553 24.3818C9.27441 24.3818 6.93066 22.0381 6.93066 19.1572C6.93066 16.2764 9.27441 13.9326 12.1553 13.9326C15.0361 13.9326 17.3799 16.2764 17.3799 19.1572C17.3799 22.0381 15.0361 24.3818 12.1553 24.3818ZM12.1553 17.2345C11.0958 17.2345 10.2326 18.0977 10.2326 19.1572C10.2326 20.2176 11.0958 21.0799 12.1553 21.0799C13.2157 21.0799 14.078 20.2176 14.078 19.1572C14.078 18.0977 13.2157 17.2345 12.1553 17.2345Z" fill="#4F4F4F"/>
<path d="M44.2603 24.4825C41.3804 24.4825 39.0366 22.1387 39.0366 19.2579C39.0366 16.3779 41.3804 14.0342 44.2603 14.0342C47.1412 14.0342 49.4849 16.3779 49.4849 19.2579C49.4849 22.1387 47.1412 24.4825 44.2603 24.4825ZM44.2603 17.3351C43.2008 17.3351 42.3385 18.1975 42.3385 19.2579C42.3385 20.3183 43.2008 21.1806 44.2603 21.1806C45.3207 21.1806 46.183 20.3183 46.183 19.2579C46.183 18.1975 45.3207 17.3351 44.2603 17.3351Z" fill="#4F4F4F"/>
</svg>
