<svg width="100" height="100" viewBox="0 0 100 100" fill="none" xmlns="http://www.w3.org/2000/svg">
<g clip-path="url(#clip0)">
<path d="M91.6666 4.16699H8.3334C3.7373 4.16699 0 7.90449 0 12.5004V70.8338C0 75.4297 3.7373 79.1672 8.3334 79.1672H37.5057C37.4158 82.4977 36.7775 87.8207 34.4016 90.3203C33.5287 91.2398 32.5258 91.6672 31.2502 91.6672C30.0986 91.6672 29.1668 92.599 29.1668 93.7506C29.1668 94.9021 30.0986 95.834 31.2502 95.834H68.7502C69.9018 95.834 70.8336 94.9021 70.8336 93.7506C70.8336 92.599 69.9018 91.6672 68.7502 91.6672C67.4746 91.6672 66.4715 91.2398 65.5988 90.3203C63.2229 87.8207 62.5844 82.4977 62.4947 79.1672H91.667C96.2629 79.1672 100 75.4299 100 70.8338V12.5004C100 7.90449 96.2627 4.16699 91.6666 4.16699ZM38.6189 91.667C41.1348 87.8098 41.6217 82.2553 41.6844 79.167H58.3154C58.3783 82.2555 58.865 87.8098 61.3809 91.667H38.6189ZM95.8334 70.8338C95.8334 73.1307 93.9637 75.0004 91.6668 75.0004H8.3334C6.03652 75.0004 4.1668 73.1307 4.1668 70.8338V62.5004H95.8334V70.8338V70.8338ZM95.8334 58.3338H4.1666V12.5004C4.1666 10.2035 6.03633 8.33379 8.3332 8.33379H91.6666C93.9635 8.33379 95.8332 10.2035 95.8332 12.5004V58.3338H95.8334Z" fill="#333333"/>
<path d="M50.0001 72.9172C52.3012 72.9172 54.1667 71.0517 54.1667 68.7506C54.1667 66.4494 52.3012 64.584 50.0001 64.584C47.6989 64.584 45.8335 66.4494 45.8335 68.7506C45.8335 71.0517 47.6989 72.9172 50.0001 72.9172Z" fill="#4F4F4F"/>
</g>
<defs>
<clipPath id="clip0">
<rect width="100" height="100" fill="white"/>
</clipPath>
</defs>
</svg>
