<svg width="1486" height="850" viewBox="0 0 1486 850" fill="none" xmlns="http://www.w3.org/2000/svg">
<rect width="850" height="850" rx="425" fill="#F2C94C"/>
<path d="M521.876 451.404H485.986V656.243L620.963 575.842V192.674H235.174V396.335L339.977 321.479L416.048 375.77V353.951H452.014V401.424L521.876 451.404Z" fill="#333333"/>
<path d="M400.781 483.876H335.172V502.865H400.781V483.876Z" fill="#333333"/>
<path d="M400.781 509.778H335.172V558.106H400.781V509.778Z" fill="#333333"/>
<path d="M1083.87 204H1019.07V484H1063.07V378.8H1083.87C1127.87 378.8 1149.47 354.4 1149.47 309.6V273.2C1149.47 228.4 1127.87 204 1083.87 204ZM1083.87 244C1097.87 244 1105.47 250.4 1105.47 270.4V312.4C1105.47 332.4 1097.87 338.8 1083.87 338.8H1063.07V244H1083.87ZM1236.25 204H1169.85V484H1239.05C1283.05 484 1305.85 460.8 1305.85 417.6V394.8C1305.85 365.2 1296.65 344 1273.05 334.8C1292.65 325.6 1301.45 307.2 1301.45 278.4V268.4C1301.45 225.2 1281.85 204 1236.25 204ZM1233.45 358C1253.45 358 1261.85 366 1261.85 392V416.4C1261.85 437.2 1253.85 444 1239.05 444H1213.85V358H1233.45ZM1235.05 244C1250.65 244 1257.45 252.8 1257.45 272.8V288.4C1257.45 310.8 1247.45 318 1231.05 318H1213.85V244H1235.05ZM1319.55 244H1365.55V484H1409.55V244H1455.55V204H1319.55V244ZM1178.68 598.613C1177.38 609.742 1173.26 618.342 1166.32 624.412C1159.43 630.434 1150.26 633.445 1138.79 633.445C1126.36 633.445 1116.39 628.989 1108.87 620.076C1101.4 611.163 1097.67 599.24 1097.67 584.305V574.188C1097.67 564.408 1099.4 555.808 1102.87 548.389C1106.39 540.969 1111.35 535.285 1117.76 531.334C1124.17 527.335 1131.59 525.336 1140.02 525.336C1151.19 525.336 1160.16 528.467 1166.9 534.73C1173.65 540.945 1177.57 549.569 1178.68 560.602H1164.73C1163.53 552.219 1160.9 546.148 1156.86 542.391C1152.86 538.633 1147.24 536.754 1140.02 536.754C1131.15 536.754 1124.19 540.03 1119.13 546.582C1114.12 553.134 1111.62 562.456 1111.62 574.549V584.738C1111.62 596.156 1114 605.238 1118.77 611.982C1123.54 618.727 1130.21 622.1 1138.79 622.1C1146.5 622.1 1152.4 620.365 1156.49 616.896C1160.64 613.38 1163.38 607.285 1164.73 598.613H1178.68ZM1278.04 632H1264.1V538.199H1212.21V632H1198.34V526.781H1278.04V632ZM1335.57 558.289C1345.4 558.289 1353.25 561.589 1359.13 568.189C1365.05 574.742 1368.02 583.389 1368.02 594.133V595.361C1368.02 602.732 1366.59 609.333 1363.75 615.162C1360.91 620.943 1356.81 625.448 1351.47 628.676C1346.17 631.855 1340.05 633.445 1333.11 633.445C1322.61 633.445 1314.15 629.952 1307.75 622.967C1301.34 615.933 1298.13 606.514 1298.13 594.711V588.207C1298.13 571.779 1301.17 558.723 1307.24 549.039C1313.36 539.355 1322.37 533.454 1334.27 531.334C1341.01 530.13 1345.57 528.66 1347.93 526.926C1350.29 525.191 1351.47 522.807 1351.47 519.771H1362.45C1362.45 525.794 1361.08 530.491 1358.33 533.863C1355.63 537.236 1351.3 539.62 1345.32 541.018L1335.35 543.258C1327.4 545.137 1321.43 548.316 1317.43 552.797C1313.48 557.229 1310.9 563.155 1309.7 570.574C1316.78 562.384 1325.4 558.289 1335.57 558.289ZM1332.97 569.273C1326.41 569.273 1321.21 571.49 1317.36 575.922C1313.5 580.306 1311.58 586.4 1311.58 594.205V595.361C1311.58 603.744 1313.5 610.393 1317.36 615.307C1321.26 620.173 1326.51 622.605 1333.11 622.605C1339.76 622.605 1345.01 620.148 1348.87 615.234C1352.72 610.32 1354.65 603.142 1354.65 593.699C1354.65 586.328 1352.7 580.426 1348.79 575.994C1344.94 571.514 1339.66 569.273 1332.97 569.273Z" fill="white"/>
</svg>
