<svg width="100" height="100" viewBox="0 0 100 100" fill="none" xmlns="http://www.w3.org/2000/svg">
<path d="M50 66.7363C49.3012 66.7363 48.7346 67.3029 48.7346 68.0018C48.7346 68.7006 49.3012 69.2672 50 69.2672C50.6988 69.2672 51.2654 68.7006 51.2654 68.0018C51.2654 67.3029 50.6988 66.7363 50 66.7363V66.7363ZM92.6758 9.76562H65.124C64.5898 4.29199 59.9631 0 54.3516 0H45.6484C39.6795 0 34.8234 4.85605 34.8234 10.825V16.6016H8.30078C7.4918 16.6016 6.83594 17.2574 6.83594 18.0664V73.7305C6.83594 74.5395 7.4918 75.1953 8.30078 75.1953H91.6992C92.5082 75.1953 93.1641 74.5395 93.1641 73.7305V18.0664C93.1641 17.2574 92.5082 16.6016 91.6992 16.6016H70.1553C69.3463 16.6016 68.6904 17.2574 68.6904 18.0664C68.6904 18.8754 69.3463 19.5312 70.1553 19.5312H90.2344V72.2656H83.7715V64.5449C83.7715 59.3707 80.7148 54.6729 75.9676 52.5695L61.8602 46.5227C59.7121 45.602 58.3242 43.4971 58.3242 41.1602V41.1396C62.4477 38.4236 65.1766 33.7551 65.1766 28.4588V12.6953H92.6758C95.099 12.6953 97.0703 14.6666 97.0703 17.0898V74.707C97.0703 77.1303 95.099 79.1016 92.6758 79.1016H7.32422C4.90098 79.1016 2.92969 77.1303 2.92969 74.707V17.0898C2.92969 14.6666 4.90098 12.6953 7.32422 12.6953H29.9379C30.7469 12.6953 31.4027 12.0395 31.4027 11.2305C31.4027 10.4215 30.7469 9.76562 29.9379 9.76562H7.32422C3.28555 9.76562 0 13.0512 0 17.0898V74.707C0 78.7457 3.28555 82.0312 7.32422 82.0312H39.5584L35.1166 91.2109H34.5414C32.1182 91.2109 30.1469 93.1822 30.1469 95.6055C30.1469 98.0287 32.1182 100 34.5414 100H65.4586C67.8818 100 69.8531 98.0287 69.8531 95.6055C69.8531 93.1822 67.8818 91.2109 65.4586 91.2109H64.8834L60.4416 82.0312H92.6758C96.7145 82.0312 100 78.7457 100 74.707V17.0898C100 13.0512 96.7145 9.76562 92.6758 9.76562V9.76562ZM16.2285 72.2656H9.76562V19.5312H34.8234C35.0479 21.6961 34.8234 26.4016 34.8234 28.4588C34.8234 33.7551 37.5523 38.4236 41.6758 41.1396V41.2305C41.6758 43.5535 40.2996 45.6525 38.1697 46.5785L24.2418 52.6344C19.3738 54.6848 16.2285 59.4213 16.2285 64.7012V72.2656ZM61.523 49.5656L74.7971 55.2553C78.4691 56.8824 80.8418 60.5287 80.8418 64.5449V72.2656H19.1582V64.7012C19.1582 60.6029 21.6 56.9262 25.3947 55.3277L38.5977 49.5873L48.1951 56.0889C48.8715 56.5471 49.6539 56.7752 50.4355 56.7752C51.2711 56.7752 52.1057 56.5147 52.8084 55.9961L61.523 49.5656ZM58.6941 48.0121L51.0689 53.6385C50.7062 53.9062 50.2117 53.9162 49.8383 53.6631L41.4385 47.9729C43.0676 46.6213 44.1639 44.7133 44.4973 42.5986C46.2047 43.2654 48.0594 43.6355 50 43.6355C51.9447 43.6355 53.8031 43.2639 55.5135 42.5943C55.8682 44.7418 57.0082 46.6689 58.6941 48.0121V48.0121ZM62.2469 25.7166C61.7805 26.816 60.9225 28.299 59.3926 29.5609C58.7748 30.0705 58.1023 30.4998 57.3838 30.8459C56.6994 29.6248 55.3939 28.7965 53.8975 28.7965H50.8266C48.6234 28.7965 46.8309 30.5889 46.8309 32.7922C46.8309 34.9955 48.6232 36.7879 50.8266 36.7879H53.8975C55.7228 36.7879 57.2627 35.5561 57.7385 33.8809C59.2939 33.2764 60.7207 32.3721 61.9281 31.2242C60.6707 36.6492 55.8018 40.7059 50 40.7059C43.2471 40.7059 37.7531 35.2119 37.7531 28.4588V21.4592C37.7531 20.401 38.2564 19.4545 39.1338 18.8629C40.0154 18.2684 41.0838 18.1617 42.0582 18.5563L48.6168 21.2088C53.0605 23.0061 58.2635 22.4078 62.2469 19.7277V25.7166ZM54.9633 32.7957C54.9613 33.3818 54.484 33.858 53.8975 33.858H50.8266C50.2389 33.858 49.7605 33.3799 49.7605 32.792C49.7605 32.2043 50.2387 31.726 50.8266 31.726H53.8975C54.4838 31.726 54.9607 32.2018 54.9631 32.7875C54.9631 32.7902 54.9633 32.793 54.9633 32.7957ZM62.2469 16.3334L59.8105 17.7592C56.7627 19.5422 52.9889 19.8168 49.7152 18.4928L43.1566 15.8402C41.3797 15.1215 39.3828 15.2871 37.7529 16.2717V10.825C37.7531 6.47148 41.2949 2.92969 45.6484 2.92969H54.3518C58.7053 2.92969 62.2471 6.47148 62.2471 10.825V16.3334H62.2469ZM65.4586 94.1406C66.2664 94.1406 66.9234 94.7977 66.9234 95.6055C66.9234 96.4133 66.2664 97.0703 65.4586 97.0703H34.5414C33.7336 97.0703 33.0766 96.4133 33.0766 95.6055C33.0766 94.7977 33.7336 94.1406 34.5414 94.1406H65.4586ZM61.6287 91.2109H38.3713L42.8131 82.0312H57.1871L61.6287 91.2109ZM50 60.877C49.3012 60.877 48.7346 61.4436 48.7346 62.1424C48.7346 62.8412 49.3012 63.4078 50 63.4078C50.6988 63.4078 51.2654 62.8412 51.2654 62.1424C51.2654 61.4436 50.6988 60.877 50 60.877V60.877Z" fill="#333333"/>
</svg>
