<svg width="70" height="70" viewBox="0 0 70 70" fill="none" xmlns="http://www.w3.org/2000/svg">
<g clip-path="url(#clip0)">
<path d="M61.1101 27.6057L37.9143 4.40991C35.5164 2.01187 31.6142 2.01173 29.216 4.40991C27.0602 6.56556 26.8746 9.85323 28.4665 12.2008L28.4343 12.3623C26.7619 20.7247 22.6906 28.3323 16.6601 34.3626L6.02077 45.002C3.61698 47.4059 3.61657 51.2963 6.02077 53.7003L11.8195 59.4991C14.2232 61.9028 18.1139 61.903 20.5178 59.4991L21.9676 58.0493L32.1157 68.1974C34.5195 70.6013 38.4099 70.6014 40.8138 68.1974C43.212 65.7993 43.212 61.8972 40.8138 59.4992L36.4647 55.15L37.9145 53.7003C40.3182 51.2966 40.3185 47.4062 37.9145 45.0021L36.9293 44.0168C41.7758 40.6235 47.2799 38.2612 53.1579 37.0855L53.3214 37.0529C55.7212 38.6731 59.0012 38.4127 61.1101 36.3038H61.1103C63.508 33.9059 63.508 30.0039 61.1101 27.6057ZM17.6185 56.5997C16.8173 57.4007 15.5201 57.4008 14.7189 56.5995L8.92016 50.8007C8.11885 49.9993 8.11885 48.7027 8.92016 47.9013L19.0681 37.7533L27.7664 46.4516C26.7735 47.4444 18.6358 55.5822 17.6185 56.5997ZM37.9143 62.3985C38.7136 63.1977 38.7136 64.4985 37.9143 65.2978C37.1151 66.0971 35.8142 66.0971 35.0149 65.2978L24.8669 55.1498L27.7664 52.2504L37.9143 62.3985ZM30.6658 49.351C31.2821 48.7346 32.2047 47.7906 33.6607 46.547L35.0149 47.9013C35.8162 48.7027 35.8162 49.9993 35.0149 50.8007L33.5652 52.2505L30.6658 49.351ZM30.7529 43.6394L21.8801 34.7667C26.635 29.2762 30.0402 22.795 31.8619 15.754L49.7655 33.6576C42.7245 35.4792 36.2435 38.8843 30.7529 43.6394ZM58.2103 33.4043C57.409 34.2054 56.1122 34.2054 55.3109 33.4043L32.1154 10.2087C31.3141 9.40725 31.3141 8.11061 32.1154 7.30931C32.9167 6.508 34.2136 6.508 35.0149 7.30931L58.2103 30.5047C59.0096 31.3041 59.0096 32.6047 58.2103 33.4043Z" fill="#F2C94C"/>
<path d="M20.5179 45.0013C19.7174 44.2007 18.4192 44.2007 17.6185 45.0013L14.7191 47.9007C13.9185 48.7014 13.9185 49.9995 14.7191 50.8001C15.5196 51.6008 16.818 51.6008 17.6185 50.8001L20.5179 47.9007C21.3186 47.1001 21.3186 45.802 20.5179 45.0013Z" fill="#F2C94C"/>
<path d="M47.3305 0C46.1982 0 45.2803 0.917928 45.2803 2.05023V6.15069C45.2803 7.28299 46.1982 8.20092 47.3305 8.20092C48.4628 8.20092 49.3807 7.28299 49.3807 6.15069V2.05023C49.3807 0.917928 48.4628 0 47.3305 0Z" fill="#F2C94C"/>
<path d="M63.7322 16.4023H59.6318C58.4995 16.4023 57.5815 17.3203 57.5815 18.4526C57.5815 19.5849 58.4995 20.5028 59.6318 20.5028H63.7322C64.8645 20.5028 65.7825 19.5849 65.7825 18.4526C65.7825 17.3203 64.8644 16.4023 63.7322 16.4023Z" fill="#F2C94C"/>
<path d="M61.0818 4.70057C60.2813 3.89994 58.983 3.89994 58.1824 4.70057L54.0819 8.80103C53.2813 9.60165 53.2813 10.8998 54.0819 11.7004C54.8824 12.501 56.1807 12.5012 56.9813 11.7004L61.0818 7.59995C61.8824 6.79933 61.8824 5.50133 61.0818 4.70057Z" fill="#F2C94C"/>
</g>
<defs>
<clipPath id="clip0">
<rect width="70" height="70" fill="white"/>
</clipPath>
</defs>
</svg>
