<svg width="100" height="100" viewBox="0 0 100 100" fill="none" xmlns="http://www.w3.org/2000/svg">
<path d="M95 20H73.3333V13.3333C73.3276 8.73291 69.6004 5.0057 65 5H35C30.3996 5.0057 26.6724 8.73291 26.6667 13.3333V20H5C2.23877 20 0 22.2388 0 25V62.0996C0.0105794 64.2139 1.34277 66.0946 3.33333 66.805V90C3.33333 92.7612 5.5721 95 8.33333 95H91.6667C94.4279 95 96.6667 92.7612 96.6667 90V66.8066C98.6572 66.0954 99.9902 64.2139 100 62.0996V25C100 22.2388 97.7612 20 95 20ZM30 13.3333C30 10.5721 32.2388 8.33333 35 8.33333H65C67.7612 8.33333 70 10.5721 70 13.3333V20H66.6667V13.3333C66.6667 12.4129 65.9204 11.6667 65 11.6667H35C34.0796 11.6667 33.3333 12.4129 33.3333 13.3333V20H30V13.3333ZM63.3333 20H36.6667V15H63.3333V20ZM93.3333 90C93.3333 90.9204 92.5871 91.6667 91.6667 91.6667H8.33333C7.41292 91.6667 6.66667 90.9204 6.66667 90V67.3779L43.3333 72.4349V76.6667C43.3333 79.4279 45.5721 81.6667 48.3333 81.6667H51.6667C54.4279 81.6667 56.6667 79.4279 56.6667 76.6667V72.4349L93.3333 67.3779V90ZM53.3333 76.6667C53.3333 77.5871 52.5871 78.3333 51.6667 78.3333H48.3333C47.4129 78.3333 46.6667 77.5871 46.6667 76.6667V66.6667C46.6667 65.7463 47.4129 65 48.3333 65H51.6667C52.5871 65 53.3333 65.7463 53.3333 66.6667V76.6667ZM96.6667 62.0996C96.6675 62.9305 96.0563 63.6353 95.2336 63.7516L94.7713 63.8151L56.6667 69.0698V66.6667C56.6667 63.9054 54.4279 61.6667 51.6667 61.6667H48.3333C45.5721 61.6667 43.3333 63.9054 43.3333 66.6667V69.0698L4.76807 63.7516C3.94531 63.6361 3.33252 62.9313 3.33333 62.0996V25C3.33333 24.0796 4.07959 23.3333 5 23.3333H95C95.9204 23.3333 96.6667 24.0796 96.6667 25V62.0996Z" fill="#333333"/>
</svg>
