<svg width="100" height="100" viewBox="0 0 100 100" fill="none" xmlns="http://www.w3.org/2000/svg">
<path d="M12.5 73.4375H9.375V82.8125H12.5V73.4375Z" fill="#4F4F4F"/>
<path d="M18.75 73.4375H15.625V76.5625H18.75V73.4375Z" fill="#4F4F4F"/>
<path d="M18.75 79.6875H15.625V82.8125H18.75V79.6875Z" fill="#4F4F4F"/>
<path d="M38.3711 35.5576C41.5025 36.8102 45.6324 37.5 50 37.5C54.3676 37.5 58.4975 36.8102 61.6289 35.5576C65.2135 34.1238 67.1875 32.0393 67.1875 29.6875C67.1875 27.3357 65.2135 25.2512 61.6289 23.8174C58.4975 22.5648 54.3676 21.875 50 21.875C45.6324 21.875 41.5025 22.5648 38.3711 23.8174C34.7865 25.2512 32.8125 27.3357 32.8125 29.6875C32.8125 32.0393 34.7865 34.1238 38.3711 35.5576ZM50 25C58.5844 25 64.0625 27.7762 64.0625 29.6875C64.0625 31.5988 58.5844 34.375 50 34.375C41.4156 34.375 35.9375 31.5988 35.9375 29.6875C35.9375 27.7762 41.4156 25 50 25Z" fill="#4F4F4F"/>
<path d="M84.375 45.3125H82.8125V29.6875C82.8125 24.5008 79.2744 19.6984 72.85 16.165C66.7209 12.7939 58.6059 10.9375 50 10.9375C41.3941 10.9375 33.2791 12.793 27.15 16.165C20.7256 19.6984 17.1875 24.5008 17.1875 29.6875V51.5625C17.1875 56.7492 20.7256 61.5516 27.15 65.085C28.6276 65.8918 30.1598 66.5944 31.7354 67.1875H4.6875C4.2731 67.1875 3.87567 67.3521 3.58265 67.6451C3.28962 67.9382 3.125 68.3356 3.125 68.75V87.5C3.125 87.9144 3.28962 88.3118 3.58265 88.6049C3.87567 88.8979 4.2731 89.0625 4.6875 89.0625H84.375C87.6891 89.0588 90.8663 87.7406 93.2097 85.3972C95.5531 83.0538 96.8713 79.8766 96.875 76.5625V57.8125C96.8713 54.4984 95.5531 51.3212 93.2097 48.9778C90.8663 46.6344 87.6891 45.3162 84.375 45.3125V45.3125ZM21.875 85.9375H6.25V70.3125H21.875V85.9375ZM79.6875 45.3125H68.2647C69.8402 44.7194 71.3724 44.0168 72.85 43.21C75.7291 41.6266 78.0258 39.7875 79.6875 37.774V45.3125ZM28.6561 18.9031C34.3314 15.7812 41.9117 14.0625 50 14.0625C58.0883 14.0625 65.6686 15.7812 71.3439 18.9031C76.7244 21.8625 79.6875 25.6922 79.6875 29.6875C79.6875 33.6828 76.7244 37.5125 71.3439 40.4719C65.6686 43.5938 58.0883 45.3125 50 45.3125C41.9117 45.3125 34.3314 43.5938 28.6561 40.4719C23.2756 37.5125 20.3125 33.6828 20.3125 29.6875C20.3125 25.6922 23.2756 21.8625 28.6561 18.9031ZM28.6561 62.3469C23.2756 59.3875 20.3125 55.5576 20.3125 51.5625V37.7734C21.9727 39.7869 24.2709 41.626 27.15 43.2094C27.9617 43.6559 28.8076 44.0753 29.6875 44.4676V51.5625H32.8125V45.7053C34.3499 46.2377 35.9146 46.6876 37.5 47.0529V51.5625H40.625V47.6758C42.1529 47.9311 43.7189 48.1232 45.3125 48.251V57.8125H48.4375V48.4168C48.9562 48.4298 49.4771 48.4367 50 48.4375H53.125V51.5625H56.25V48.4375H60.9375V51.5625H64.0625V48.4375H68.75V57.8125H71.875V48.4375H76.5625V51.5625H79.6875V48.4375H84.375V51.5625H87.5V48.975C89.5841 49.7128 91.3404 51.1635 92.4586 53.0707C93.5769 54.9779 93.9851 57.2189 93.6112 59.3979C93.2373 61.577 92.1054 63.5537 90.4153 64.9791C88.7253 66.4044 86.5859 67.1866 84.375 67.1875H50C41.9117 67.1875 34.3314 65.4688 28.6561 62.3469ZM93.75 76.5625C93.7472 79.048 92.7585 81.4309 91.001 83.1885C89.2434 84.946 86.8605 85.9347 84.375 85.9375H25V70.3125H29.6875V73.4375H32.8125V70.3125H37.5V73.4375H40.625V70.3125H45.3125V79.6875H48.4375V70.3125H53.125V73.4375H56.25V70.3125H60.9375V73.4375H64.0625V70.3125H68.75V79.6875H71.875V70.3125H76.5625V73.4375H79.6875V70.3125H84.375V73.4375H87.5V69.917C89.9213 69.2873 92.0983 67.9464 93.75 66.0672V76.5625Z" fill="#333333"/>
</svg>
