<svg width="70" height="70" viewBox="0 0 70 70" fill="none" xmlns="http://www.w3.org/2000/svg">
<path d="M26.8333 23.3335H24.5V25.6668H26.8333V23.3335Z" fill="#828282"/>
<path d="M26.8333 28H24.5V30.3333H26.8333V28Z" fill="#828282"/>
<path d="M26.8333 32.6665H24.5V34.9998H26.8333V32.6665Z" fill="#828282"/>
<path d="M26.8333 37.3335H24.5V39.6668H26.8333V37.3335Z" fill="#828282"/>
<path d="M31.4998 23.3335H29.1665V25.6668H31.4998V23.3335Z" fill="#828282"/>
<path d="M31.4998 28H29.1665V30.3333H31.4998V28Z" fill="#828282"/>
<path d="M31.4998 32.6665H29.1665V34.9998H31.4998V32.6665Z" fill="#828282"/>
<path d="M31.4998 37.3335H29.1665V39.6668H31.4998V37.3335Z" fill="#828282"/>
<path d="M36.1668 23.3335H33.8335V25.6668H36.1668V23.3335Z" fill="#828282"/>
<path d="M36.1668 28H33.8335V30.3333H36.1668V28Z" fill="#828282"/>
<path d="M36.1668 32.6665H33.8335V34.9998H36.1668V32.6665Z" fill="#828282"/>
<path d="M36.1668 37.3335H33.8335V39.6668H36.1668V37.3335Z" fill="#828282"/>
<path d="M40.8333 23.3335H38.5V25.6668H40.8333V23.3335Z" fill="#828282"/>
<path d="M31.4998 18.6665H29.1665V20.9998H31.4998V18.6665Z" fill="#828282"/>
<path d="M36.1668 18.6665H33.8335V20.9998H36.1668V18.6665Z" fill="#828282"/>
<path d="M40.8333 18.6665H38.5V20.9998H40.8333V18.6665Z" fill="#828282"/>
<path d="M40.8333 28H38.5V30.3333H40.8333V28Z" fill="#828282"/>
<path d="M40.8333 32.6665H38.5V34.9998H40.8333V32.6665Z" fill="#828282"/>
<path d="M40.8333 37.3335H38.5V39.6668H40.8333V37.3335Z" fill="#828282"/>
<path d="M45.4998 23.3335H43.1665V25.6668H45.4998V23.3335Z" fill="#828282"/>
<path d="M45.4998 28H43.1665V30.3333H45.4998V28Z" fill="#828282"/>
<path d="M45.4998 32.6665H43.1665V34.9998H45.4998V32.6665Z" fill="#828282"/>
<path d="M45.4998 37.3335H43.1665V39.6668H45.4998V37.3335Z" fill="#828282"/>
<path d="M68.8346 17.5C68.8342 17.5 68.8338 17.5 68.8333 17.5H51.3333V1.16667C51.3338 0.522667 50.812 0.000437775 50.168 2.74918e-07C50.1675 2.74918e-07 50.1671 2.74918e-07 50.1667 2.74918e-07H19.8333C19.1893 -0.000437225 18.6671 0.521354 18.6667 1.16535C18.6667 1.16579 18.6667 1.16623 18.6667 1.16667V17.5H1.16667C0.522667 17.4996 0.000437775 18.0214 2.74918e-07 18.6654C2.74918e-07 18.6658 2.74918e-07 18.6662 2.74918e-07 18.6667V60.6667C-0.000437225 61.3107 0.521354 61.8329 1.16535 61.8333C1.16579 61.8333 1.16623 61.8333 1.16667 61.8333H3.60544C3.53777 62.2186 3.50248 62.6089 3.5 63V68.8333C3.49956 69.4773 4.02135 69.9996 4.66535 70C4.66579 70 4.66623 70 4.66667 70H65.3333C65.9773 70.0004 66.4996 69.4786 66.5 68.8346C66.5 68.8342 66.5 68.8338 66.5 68.8333V63C66.4977 62.6089 66.4624 62.2186 66.3946 61.8333H68.8333C69.4773 61.8338 69.9996 61.312 70 60.668C70 60.6675 70 60.6671 70 60.6667V18.6667C70.0004 18.0227 69.4786 17.5004 68.8346 17.5ZM50.1667 50.1667C50.1667 51.4554 49.1221 52.5 47.8333 52.5C46.5446 52.5 45.5 51.4554 45.5 50.1667C45.5 48.8779 46.5446 47.8333 47.8333 47.8333C49.1213 47.8349 50.1651 48.8787 50.1667 50.1667ZM22.1667 47.8333C23.4554 47.8333 24.5 48.8779 24.5 50.1667C24.5 51.4554 23.4554 52.5 22.1667 52.5C20.8779 52.5 19.8333 51.4554 19.8333 50.1667C19.8349 48.8787 20.8787 47.8349 22.1667 47.8333ZM15.1667 67.6667H5.83333V63C5.83333 60.4227 7.92269 58.3333 10.5 58.3333C13.0773 58.3333 15.1667 60.4227 15.1667 63V67.6667ZM8.16667 53.6667C8.16667 52.3779 9.21127 51.3333 10.5 51.3333C11.7887 51.3333 12.8333 52.3779 12.8333 53.6667C12.8333 54.9554 11.7887 56 10.5 56C9.212 55.9984 8.16827 54.9547 8.16667 53.6667ZM15.3434 57.9578C14.9034 57.5334 14.4101 57.1683 13.8757 56.8715C15.6552 55.0072 15.5865 52.0532 13.7222 50.2736C11.8579 48.494 8.90385 48.5628 7.12425 50.4271C5.40298 52.2304 5.40298 55.0681 7.12425 56.8714C6.01067 57.4894 5.0855 58.3978 4.44704 59.4999H2.33333V19.8333H18.6667V47.1123C17.0645 48.91 17.1186 51.6389 18.7909 53.3715C17.0409 54.3394 15.7869 56.0077 15.3434 57.9578ZM26.8333 67.6667H17.5V59.5C17.5 56.9227 19.5894 54.8333 22.1667 54.8333C24.744 54.8333 26.8333 56.9227 26.8333 59.5V67.6667ZM40.8333 67.6667H29.1667V59.5C29.1667 56.2784 31.7784 53.6667 35 53.6667C38.2216 53.6667 40.8333 56.2784 40.8333 59.5V67.6667ZM31.5 47.8333C31.5 45.9003 33.067 44.3333 35 44.3333C36.933 44.3333 38.5 45.9003 38.5 47.8333C38.5 49.7664 36.933 51.3333 35 51.3333C33.0679 51.3313 31.502 49.7655 31.5 47.8333ZM42.1053 55.4889C41.3241 54.1116 40.1618 52.9894 38.758 52.2572C41.2221 50.1817 41.5371 46.5016 39.4618 44.0374C37.3863 41.5733 33.7062 41.2583 31.242 43.3336C28.7779 45.4091 28.4629 49.0892 30.5382 51.5534C30.7523 51.8076 30.9877 52.043 31.242 52.2572C29.8382 52.9894 28.6759 54.1116 27.8947 55.4889C27.2813 54.6139 26.4769 53.8898 25.5424 53.3715C27.3311 51.5417 27.2978 48.6083 25.4679 46.8196C24.2897 45.6679 22.5886 45.2286 21 45.6657V2.33333H49V45.6657C48.6198 45.5608 48.2277 45.5051 47.8333 45.5C45.2629 45.4931 43.1735 47.5714 43.1667 50.142C43.1635 51.3449 43.6262 52.5023 44.4576 53.3715C43.5231 53.8898 42.7187 54.6139 42.1053 55.4889ZM52.5 63V67.6667H43.1667V59.5C43.1667 56.9227 45.256 54.8333 47.8333 54.8333C50.4106 54.8333 52.5 56.9227 52.5 59.5V63ZM64.1667 67.6667H54.8333V63C54.8333 60.4227 56.9227 58.3333 59.5 58.3333C62.0773 58.3333 64.1667 60.4227 64.1667 63V67.6667ZM57.1667 53.6667C57.1667 52.3779 58.2113 51.3333 59.5 51.3333C60.7887 51.3333 61.8333 52.3779 61.8333 53.6667C61.8333 54.9554 60.7887 56 59.5 56C58.212 55.9984 57.1683 54.9547 57.1667 53.6667ZM67.6667 59.5H65.553C64.9145 58.3979 63.9893 57.4895 62.8757 56.8715C64.6552 55.0072 64.5865 52.0532 62.7222 50.2736C60.8579 48.4941 57.9039 48.5628 56.1242 50.4271C54.403 52.2304 54.403 55.0681 56.1242 56.8714C55.5899 57.1681 55.0964 57.5333 54.6566 57.9577C54.2132 56.0076 52.9591 54.3392 51.2091 53.3714C52.8814 51.6387 52.9356 48.9099 51.3335 47.1122V19.8333H67.6668V59.5H67.6667Z" fill="#828282"/>
<path d="M57.1668 26.8335H54.8335V45.5002H57.1668V26.8335Z" fill="#828282"/>
<path d="M64.1669 26.8335H61.8335V45.5002H64.1669V26.8335Z" fill="#828282"/>
<path d="M8.16683 26.8335H5.8335V45.5002H8.16683V26.8335Z" fill="#828282"/>
<path d="M15.1668 26.8335H12.8335V45.5002H15.1668V26.8335Z" fill="#828282"/>
<path d="M42.0015 4.6665C42.001 4.6665 42.0006 4.6665 42.0002 4.6665H28.0002C27.3562 4.66607 26.8339 5.18786 26.8335 5.83186C26.8335 5.8323 26.8335 5.83273 26.8335 5.83317V15.1665C26.8331 15.8105 27.3549 16.3327 27.9989 16.3332C27.9993 16.3332 27.9997 16.3332 28.0002 16.3332H42.0002C42.6442 16.3336 43.1664 15.8118 43.1668 15.1678C43.1668 15.1674 43.1668 15.1669 43.1668 15.1665V5.83317C43.1673 5.18917 42.6455 4.66694 42.0015 4.6665ZM40.8335 13.9998H29.1668V6.99984H40.8335V13.9998Z" fill="#828282"/>
</svg>
